<svg width="800" height="276" viewBox="0 0 800 276" fill="none" xmlns="http://www.w3.org/2000/svg">
<g clip-path="url(#clip0_764_14336)">
<path d="M0 36.6613C0 35.7438 0.73774 35 1.64779 35H66.4071C67.3172 35 68.0549 35.7438 68.0549 36.6613V128.959C68.0549 129.769 69.0857 130.1 69.5505 129.441L135.617 35.699C135.926 35.2605 136.427 35 136.96 35H202.517C203.427 35 204.165 35.7438 204.165 36.6613V239.339C204.165 240.256 203.427 241 202.517 241H137.758C136.848 241 136.11 240.256 136.11 239.339V147.041C136.11 146.231 135.079 145.9 134.614 146.559L68.5477 240.301C68.2386 240.74 67.738 241 67.2045 241H1.64778C0.737737 241 0 240.256 0 239.339V36.6613Z" fill="white"/>
<path d="M252.688 36.6613C252.688 35.7438 253.424 35 254.335 35H319.095C320.003 35 320.742 35.7438 320.742 36.6613V102.005C320.742 102.923 321.48 103.667 322.389 103.667H387.149C388.06 103.667 388.796 102.923 388.796 102.005V36.6613C388.796 35.7438 389.535 35 390.444 35H455.203C456.115 35 456.851 35.7438 456.851 36.6613V239.339C456.851 240.256 456.115 241 455.203 241H390.444C389.535 241 388.796 240.256 388.796 239.339V173.995C388.796 173.077 388.06 172.333 387.149 172.333H322.389C321.48 172.333 320.742 173.077 320.742 173.995V239.339C320.742 240.256 320.003 241 319.095 241H254.335C253.424 241 252.688 240.256 252.688 239.339V36.6613Z" fill="white"/>
<path d="M504.719 36.6613C504.719 35.7438 505.455 35 506.366 35H571.126C572.035 35 572.773 35.7438 572.773 36.6613V119.269C572.773 120.103 573.855 120.417 574.295 119.711L626.574 35.7778C626.875 35.2938 627.403 35 627.968 35H702.589C703.886 35 704.674 36.4446 703.98 37.5507L641.415 137.066C641.06 137.632 641.076 138.358 641.457 138.907L710.373 238.387C711.135 239.489 710.354 241 709.022 241H634.513C633.978 241 633.474 240.737 633.166 240.295L574.271 155.99C573.808 155.327 572.773 155.657 572.773 156.468V239.339C572.773 240.256 572.035 241 571.126 241H506.366C505.455 241 504.719 240.256 504.719 239.339V36.6613Z" fill="white"/>
<path d="M732.438 206.943C732.438 188.134 747.562 172.887 766.217 172.887C784.873 172.887 799.997 188.134 799.997 206.943C799.997 225.752 784.873 241 766.217 241C747.562 241 732.438 225.752 732.438 206.943Z" fill="white"/>
</g>
<defs>
<clipPath id="clip0_764_14336">
<rect width="800" height="206" fill="white" transform="translate(0 35)"/>
</clipPath>
</defs>
</svg>
