<svg xmlns="http://www.w3.org/2000/svg" viewBox="0 0 209 62"><defs><linearGradient id="c" x1="153.1" x2="153.1" y1=".6" y2="61.6" gradientUnits="userSpaceOnUse"><stop offset="0" stop-color="#e23836"/><stop offset="1" stop-color="#8c2322"/></linearGradient><linearGradient id="e" x1="61.8" x2="61.8" y1=".6" y2="60" gradientUnits="userSpaceOnUse"><stop offset="0" stop-color="#1d4677"/><stop offset="1" stop-color="#367abe"/></linearGradient><clipPath id="a"><path d="M97.5.6h111.1V61h-111z"/></clipPath><clipPath id="b"><path d="M144.5 45l-5.1-16.7c5-1.4 8.7-3 10.7-5a14 14 0 0 0 4.7-10.2 11 11 0 0 0-2-6.7 8 8 0 0 1 3.4 1c.8.5 1.2 1.3 1.2 2.4 0 1-.3 2.7-1 4.8L149.2 39a33.5 33.5 0 0 0-1.7 8.6 13.6 13.6 0 0 0 2 6.5c-.6-.2-1-.5-1.4-.8a23 23 0 0 1-3.6-8.1zM132 4h2a8 8 0 0 1 5.5 2c1.4 1.4 2 3.4 2 6 0 4.4-1.2 8-3.9 10.7-2.6 2.7-6 4-10 4h-2.5zM112.9.5l-.4 1.7c2.7.2 4.4.6 5 1.2a3 3 0 0 1 1.2 2.5c0 1.2-.3 2.7-.9 4.7l-10.6 35.6c-1 3.6-2.2 6-3.5 7-1.2 1-3.2 1.4-6 1.4l-.5 1.4h27.4l.6-1.4c-2.8 0-4.6-.3-5.4-1a2.9 2.9 0 0 1-1.3-2.4c0-1.2.3-2.9 1-5.3l5.1-16.7h1.4l1.4-.2 8 27H151c.2 0 .3.4.4.5 1.3 1.2 3.2 2.4 6 3.4a27 27 0 0 0 9.2 1.5c6.2 0 11.4-1.6 15.4-4.7a32 32 0 0 0 9.6-16.6l7.5-25.5c1-3.2 2.4-5.4 4.3-6.8 1.2-.9 3-1.5 5.1-1.7l.4-1.5h-19.2l-.5 1.6c2.7 0 4.5.3 5.4 1 1.2.8 1.8 2.1 1.8 3.8 0 1-.2 2.2-.6 3.6l-7.4 25.2a38.7 38.7 0 0 1-5 11.1 14 14 0 0 1-5.2 4.5c-2.2 1-4.7 1.6-7.7 1.6-3.3 0-6-.8-7.8-2.5a7.6 7.6 0 0 1-2.7-5.8c0-2.5.6-5.7 1.8-9.8l7.2-24.3c1-3.3 2.2-5.5 3.7-6.7a9.9 9.9 0 0 1 6.2-1.7l.5-1.6h-28.1c-.2 0-.4-.4-.6-.6C148 1.7 143.2.5 136.5.5z"/></clipPath><clipPath id="d"><path d="M64 51.6c0-1.1.4-2.8 1-5l10.5-35.8A23 23 0 0 1 77 6.5l.3.1c.9.7 1.3 1.5 1.3 2.5s-.5 3.4-1.6 7.1l-9.5 32.5c-.7 2.5-1.3 4.4-1.9 5.6l-.4-.3a3 3 0 0 1-1.2-2.4zm2-51L39.2 39 35.1.6H15L14.5 2c2.1 0 3.7.3 4.6.6 1 .4 2 1.3 3.2 2.5L10 46.5a13 13 0 0 1-4.6 7.1 7.8 7.8 0 0 1-5 1.4L0 56.5h18.6L19 55c-2.3 0-3.9-.5-4.9-1.4-1-.8-1.4-1.9-1.4-3.3 0-1 .2-2.2.7-3.8L24 9.4l5.1 47H31l32.3-46.1-10.6 36.2c-1 3.4-2.3 5.7-3.7 6.8-1.4 1.2-3.7 1.7-6.7 1.7l-.5 1.5h22.4c-.4 0-.8.7-1.3 1-1.1.4-2.8.7-5 .7l-.4 1.5h27.4l.4-1.4c-2.3 0-4-.4-4.9-1.1-1-.7-1.4-1.6-1.4-2.8 0-1 .4-2.6 1-4.9l6-20.4 6 19c.8 2.7 1.2 4.7 1.2 6a4 4 0 0 1-1.1 2.8c-.8.8-2 1.2-3.6 1.4l-.5 1.4h24.4l.5-1.4c-2-.2-3.5-.8-4.7-2a41.1 41.1 0 0 1-5-12l-6.6-20.6 8.9-8 3.9-3.5a51.4 51.4 0 0 1 10-6c1-.3 2.3-.7 4-.8l.4-1.6h-21.3l-.4 1.6c1.5.2 2.5.6 3 1.2.7.6 1 1.4 1 2.2a4 4 0 0 1-.7 2.2c-.3.5-2 2-4.8 4.7L86 29.1l3.8-13.4a36 36 0 0 1 2.1-6.3 8.1 8.1 0 0 1 3-3.1c1-.6 2.4-.9 4.2-.9l.4-1.6H79.1a9.7 9.7 0 0 1 6.2-1.7l.5-1.5z"/></clipPath></defs><g clip-path="url(#a)"><path fill="#651213" d="M208.6 4.5l-.3 1.6c-2.2.2-4 .8-5.1 1.6a12 12 0 0 0-4.3 6.8l-7.5 25.3a31.9 31.9 0 0 1-9.6 16.5 24 24 0 0 1-15.2 4.7 27 27 0 0 1-9.3-1.5c-2.7-1-4.6-2.1-5.9-3.3l-.3-.5h-15.5l-8-26.8-1.4.2-1.4-.1-5 16.7c-.8 2.3-1.1 4-1.1 5.1 0 1 .4 1.9 1.3 2.5.8.6 2.6 1 5.3 1l-.5 1.4H97.5l.5-1.4c2.7 0 4.7-.4 6-1.5 1.3-1 2.4-3.3 3.5-6.9L118 10.6c.6-2 .9-3.6.9-4.7s-.4-2-1.1-2.5c-.7-.6-2.4-1-5-1.2l.4-1.7h23.4c6.7 0 11.4 1.2 14.2 3.5.1.2.3.5.5.5h28l-.5 1.6a10 10 0 0 0-6.2 1.8c-1.5 1.1-2.7 3.3-3.6 6.7l-7.3 24a37.3 37.3 0 0 0-1.8 9.8c0 2.2 1 4.1 2.8 5.8a11 11 0 0 0 7.7 2.5 14.5 14.5 0 0 0 12.9-6.1c1.8-2.6 3.4-6.3 4.9-11l7.4-25c.4-1.5.6-2.7.6-3.6 0-1.7-.6-3-1.8-4-.9-.5-2.7-.9-5.4-.9l.5-1.6zm-80.8 22.1c4 0 7.4-1.3 10-4 2.6-2.7 4-6.3 4-10.7 0-2.6-.8-4.6-2.1-6a7.6 7.6 0 0 0-5.6-2l-2 .1-6.8 22.5 2.5.1zm28.6-12a22 22 0 0 0 1-4.9c0-1-.4-1.8-1.2-2.4-.6-.4-1.7-.7-3.4-1 1.4 2 2 4.2 2 6.7 0 3.7-1.5 7.1-4.7 10.2a26 26 0 0 1-10.7 4.9l5.1 16.7c1.4 4.4 2.6 7.1 3.6 8 .4.4.8.7 1.4.9l-1-2c-.6-1.8-1-3.3-1-4.5 0-2 .6-4.8 1.7-8.5z"/></g><g clip-path="url(#b)"><path fill="url(#c)" d="M144.5 45l-5.1-16.7c5-1.4 8.7-3 10.7-5a14 14 0 0 0 4.7-10.2 11 11 0 0 0-2-6.7 8 8 0 0 1 3.4 1c.8.5 1.2 1.3 1.2 2.4 0 1-.3 2.7-1 4.8L149.2 39a33.5 33.5 0 0 0-1.7 8.6 13.6 13.6 0 0 0 2 6.5c-.6-.2-1-.5-1.4-.8a23 23 0 0 1-3.6-8.1zM132 4h2a8 8 0 0 1 5.5 2c1.4 1.4 2 3.4 2 6 0 4.4-1.2 8-3.9 10.7-2.6 2.7-6 4-10 4h-2.5zM112.9.5l-.4 1.7c2.7.2 4.4.6 5 1.2a3 3 0 0 1 1.2 2.5c0 1.2-.3 2.7-.9 4.7l-10.6 35.6c-1 3.6-2.2 6-3.5 7-1.2 1-3.2 1.4-6 1.4l-.5 1.4h27.4l.6-1.4c-2.8 0-4.6-.3-5.4-1a2.9 2.9 0 0 1-1.3-2.4c0-1.2.3-2.9 1-5.3l5.1-16.7h1.4l1.4-.2 8 27H151c.2 0 .3.4.4.5 1.3 1.2 3.2 2.4 6 3.4a27 27 0 0 0 9.2 1.5c6.2 0 11.4-1.6 15.4-4.7a32 32 0 0 0 9.6-16.6l7.5-25.5c1-3.2 2.4-5.4 4.3-6.8 1.2-.9 3-1.5 5.1-1.7l.4-1.5h-19.2l-.5 1.6c2.7 0 4.5.3 5.4 1 1.2.8 1.8 2.1 1.8 3.8 0 1-.2 2.2-.6 3.6l-7.4 25.2a38.7 38.7 0 0 1-5 11.1 14 14 0 0 1-5.2 4.5c-2.2 1-4.7 1.6-7.7 1.6-3.3 0-6-.8-7.8-2.5a7.6 7.6 0 0 1-2.7-5.8c0-2.5.6-5.7 1.8-9.8l7.2-24.3c1-3.3 2.2-5.5 3.7-6.7a9.9 9.9 0 0 1 6.2-1.7l.5-1.6h-28.1c-.2 0-.4-.4-.6-.6C148 1.7 143.2.5 136.5.5z"/></g><g clip-path="url(#d)"><path fill="url(#e)" d="M64 51.6c0-1.1.4-2.8 1-5l10.5-35.8A23 23 0 0 1 77 6.5l.3.1c.9.7 1.3 1.5 1.3 2.5s-.5 3.4-1.6 7.1l-9.5 32.5c-.7 2.5-1.3 4.4-1.9 5.6l-.4-.3a3 3 0 0 1-1.2-2.4zm2-51L39.2 39 35.1.6H15L14.5 2c2.1 0 3.7.3 4.6.6 1 .4 2 1.3 3.2 2.5L10 46.5a13 13 0 0 1-4.6 7.1 7.8 7.8 0 0 1-5 1.4L0 56.5h18.6L19 55c-2.3 0-3.9-.5-4.9-1.4-1-.8-1.4-1.9-1.4-3.3 0-1 .2-2.2.7-3.8L24 9.4l5.1 47H31l32.3-46.1-10.6 36.2c-1 3.4-2.3 5.7-3.7 6.8-1.4 1.2-3.7 1.7-6.7 1.7l-.5 1.5h22.4c-.4 0-.8.7-1.3 1-1.1.4-2.8.7-5 .7l-.4 1.5h27.4l.4-1.4c-2.3 0-4-.4-4.9-1.1-1-.7-1.4-1.6-1.4-2.8 0-1 .4-2.6 1-4.9l6-20.4 6 19c.8 2.7 1.2 4.7 1.2 6a4 4 0 0 1-1.1 2.8c-.8.8-2 1.2-3.6 1.4l-.5 1.4h24.4l.5-1.4c-2-.2-3.5-.8-4.7-2a41.1 41.1 0 0 1-5-12l-6.6-20.6 8.9-8 3.9-3.5a51.4 51.4 0 0 1 10-6c1-.3 2.3-.7 4-.8l.4-1.6h-21.3l-.4 1.6c1.5.2 2.5.6 3 1.2.7.6 1 1.4 1 2.2a4 4 0 0 1-.7 2.2c-.3.5-2 2-4.8 4.7L86 29.1l3.8-13.4a36 36 0 0 1 2.1-6.3 8.1 8.1 0 0 1 3-3.1c1-.6 2.4-.9 4.2-.9l.4-1.6H79.1a9.7 9.7 0 0 1 6.2-1.7l.5-1.5z"/></g></svg>
