<?xml version="1.0" encoding="UTF-8"?>
<!DOCTYPE svg PUBLIC "-//W3C//DTD SVG 1.0//EN" "http://www.w3.org/TR/2001/REC-SVG-20010904/DTD/svg10.dtd">
<!-- Creator: CorelDRAW X6 -->
<svg xmlns="http://www.w3.org/2000/svg" xml:space="preserve" width="1045px" height="262px" version="1.0" style="shape-rendering:geometricPrecision; text-rendering:geometricPrecision; image-rendering:optimizeQuality; fill-rule:evenodd; clip-rule:evenodd"
viewBox="0 0 1045 262"
 xmlns:xlink="http://www.w3.org/1999/xlink">
 <defs>
  <style type="text/css">
   <![CDATA[
    .fil0 {fill:#2B2A29;fill-rule:nonzero}
   ]]>
  </style>
 </defs>
 <g id="Слой_x0020_1">
  <metadata id="CorelCorpID_0Corel-Layer"/>
  <path class="fil0" d="M211 94c0,17 -4,32 -12,46 -8,14 -19,25 -33,33l46 83 -79 0 -39 -71 -14 0 0 71 -79 0 0 -256 117 0c26,0 48,9 66,27 18,18 27,40 27,66zm-101 -23l-30 0 0 44 30 0c6,0 11,-2 16,-6 4,-4 6,-9 6,-15 0,-6 -2,-11 -6,-16 -4,-4 -9,-6 -16,-6z"/>
  <path id="1" class="fil0" d="M365 73l68 0 0 183 -68 0 0 -24c-16,19 -37,28 -64,28 -20,0 -36,-7 -48,-21 -11,-14 -17,-32 -17,-52l0 -113 68 0 0 91c0,10 2,18 7,23 5,6 12,9 21,9 15,0 26,-11 33,-33l0 -90z"/>
  <path id="2" class="fil0" d="M530 256l-68 0 0 -183 68 0 0 24c16,-19 37,-28 64,-28 20,0 36,7 48,21 11,14 17,32 17,52l0 113 -68 0 0 -91c0,-10 -2,-18 -7,-23 -5,-6 -12,-9 -21,-9 -15,0 -26,11 -33,33l0 90z"/>
  <path id="3" class="fil0" d="M873 186l-120 0c6,15 19,22 39,22 17,0 33,-4 47,-11l20 40c-20,16 -46,25 -78,25 -27,0 -49,-9 -68,-28 -19,-19 -29,-42 -29,-69 0,-27 10,-50 29,-69 19,-19 42,-28 68,-28 28,0 51,8 68,25 17,17 26,41 26,72 0,7 -1,15 -2,22zm-92 -65c-8,0 -15,2 -20,6 -6,4 -9,11 -11,19l63 0c-2,-8 -6,-15 -12,-19 -6,-4 -12,-6 -20,-6z"/>
  <path id="4" class="fil0" d="M991 30l0 43 54 0 0 55 -54 0 0 53c0,8 2,14 6,18 4,4 9,6 16,6 13,0 23,-2 32,-5l0 52c-14,6 -33,8 -56,8 -44,0 -65,-23 -65,-68l0 -64 -34 0 0 -55 34 0 0 -43 68 0z"/>
 </g>
</svg>
